<!DOCTYPE svg PUBLIC "-//W3C//DTD SVG 1.1//EN" "http://www.w3.org/Graphics/SVG/1.1/DTD/svg11.dtd">

<!-- Uploaded to: SVG Repo, www.svgrepo.com, Transformed by: SVG Repo Mixer Tools -->
<svg height="4rem" width="4rem" version="1.1" id="Layer_1" xmlns="http://www.w3.org/2000/svg" xmlns:xlink="http://www.w3.org/1999/xlink" viewBox="-66.56 -66.56 645.12 645.12" xml:space="preserve" fill="#ffffff">

<g id="SVGRepo_bgCarrier" stroke-width="0">

<path transform="translate(-66.56, -66.56), scale(20.16)" d="M16,29.375527634152345C18.3455957100599,29.69680305661621,20.69666766195811,28.865904625998894,22.79363520390221,27.76692134124718C24.94369973347951,26.64011087237727,26.79893612513146,25.03207647650472,28.1437568437234,23.011201282697066C29.540945741236634,20.911631916302795,30.487310732614027,18.518256542467093,30.624103736664566,16C30.764906305827704,13.407930372957921,30.518776521257703,10.587795199401647,28.930123028159432,8.534789989037176C27.378258354373042,6.529326698958385,24.380546237080452,6.550008136369817,22.2488344726818,5.1767012052272605C19.97238658547021,3.7101513113327567,18.700823789414784,0.4011535326329227,16.000000000000004,0.2048516401222784C13.32873316109179,0.010698012649887123,11.109879130776937,2.347054386346872,9.203753430396322,4.22855564068073C7.5633108324014575,5.847806042253783,6.992252396137101,8.13912670478448,5.9035870245491235,10.1708332507738C4.853030770835011,12.131419187743221,3.119520847134434,13.786929984915103,2.896167390048504,15.999999999999998C2.6652180410989392,18.288332967091804,3.3011022693026932,20.690675925550348,4.6541709432999845,22.55051746006522C5.961946496938991,24.348101972383827,8.297215914496169,24.89639390231335,10.202096897044346,26.042262751680425C12.145477635686566,27.211290880614346,13.753082216411013,29.067768092698504,16,29.375527634152345" fill="#ffff" strokewidth="0"/>

</g>

<g id="SVGRepo_tracerCarrier" stroke-linecap="round" stroke-linejoin="round"/>

<g id="SVGRepo_iconCarrier"> <circle style="fill:#00875F;" cx="256" cy="256" r="256"/> <path style="fill:#00875F;" d="M503.434,321.85L389.317,207.731l-192.215,65.221l-81.367,24.804l206.117,205.679 C410.309,479.953,479.953,410.307,503.434,321.85z"/> <path style="fill:#FFFFFF;" d="M256,156.444c-73.699,0-138.04,40.043-172.466,99.556c34.428,59.513,98.769,99.556,172.466,99.556 S394.04,315.513,428.466,256C394.04,196.487,329.699,156.444,256,156.444z"/> <path style="fill:#F4E3C3;" d="M428.466,256c-34.428-59.513-98.769-99.556-172.466-99.556v199.111 C329.699,355.556,394.04,315.513,428.466,256z"/> <circle style="fill:#31BAFD;" cx="256" cy="256" r="85.333"/> <path style="fill:#2B9ED8;" d="M341.333,256c0-47.128-38.205-85.333-85.333-85.333v170.667 C303.128,341.333,341.333,303.128,341.333,256z"/> <circle style="fill:#324A5E;" cx="256" cy="256" r="58.613"/> <path style="fill:#2B3B4E;" d="M314.613,256c0-32.372-26.241-58.613-58.613-58.613v117.226 C288.371,314.613,314.613,288.371,314.613,256z"/> </g>

</svg>